<svg xmlns="http://www.w3.org/2000/svg" xmlns:svg="http://www.w3.org/2000/svg" id="svg6" version="1.1" viewBox="0 0 500 500"><g id="g6" transform="matrix(1.686936,0,0,1.507445,388.05263,106.65182)"><g id="g5"><path style="opacity:1;fill-rule:evenodd;stroke:none;stroke-width:1;stroke-linecap:butt;stroke-linejoin:miter;stroke-miterlimit:4;stroke-dasharray:none;stroke-dashoffset:0" id="path3" stroke-linecap="round" d="m -189.927,161.041 32.809,-32.022 47.368,38.876 -32.619,43.738 -87.665,49.304 z" vector-effect="non-scaling-stroke"/><path style="opacity:1;fill-rule:evenodd;stroke:none;stroke-width:1;stroke-linecap:butt;stroke-linejoin:miter;stroke-miterlimit:4;stroke-dasharray:none;stroke-dashoffset:0" id="path4" stroke-linecap="round" d="m -64.913,42.392 32.651,28.068 -77.49,97.438 -47.367,-38.878 91.346,-87.359 z" vector-effect="non-scaling-stroke"/><path style="opacity:1;fill-rule:evenodd;stroke:none;stroke-width:1;stroke-linecap:butt;stroke-linejoin:miter;stroke-miterlimit:4;stroke-dasharray:none;stroke-dashoffset:0" id="path5" stroke-linecap="round" d="m 46.895,-67.722 -2.202,2.004 -110.467,107.379 33.512,28.799 95.769,-121.944 0.023,-0.025 c 2.011,-2.328 2.952,-5.03 2.819,-8.105 -0.131,-3.074 -1.3,-5.686 -3.502,-7.834 -2.205,-2.148 -4.846,-3.248 -7.922,-3.3 -3.077,-0.054 -5.754,0.955 -8.03,3.026 z" vector-effect="non-scaling-stroke"/></g></g></svg>