<svg xmlns="http://www.w3.org/2000/svg" xmlns:svg="http://www.w3.org/2000/svg" id="svg15" width="70pt" height="70pt" preserveAspectRatio="xMidYMid" version="1.0" viewBox="0 0 70 70"><path id="path15" d="m 1030,375 v -75 h 75 74 l 6,33 c 4,18 5,51 3,72 l -3,40 -77,3 -78,3 z m 547,619 c -4,-4 -7,-41 -7,-81 v -74 l 78,3 77,3 v 75 75 l -70,3 c -39,1 -74,0 -78,-4 z m -547,-74 v -79 l 133,-3 132,-3 3,-267 2,-268 h 215 215 v 75 75 h -135 -135 l -2,273 -3,272 -212,3 -213,2 z" transform="matrix(0.1,0,0,-0.1,-103,99.999998)"/></svg>