<svg xmlns="http://www.w3.org/2000/svg" xmlns:svg="http://www.w3.org/2000/svg" id="svg4" width="32" height="32" version="1.1" viewBox="0 0 32 32"><g id="g4" clip-path="url(#clip0_542_18748)"><path id="rect1" d="M 5.6464844 0 C 2.5180256 -1.1842331e-15 3.5527101e-15 2.5180256 0 5.6464844 L 0 26.353516 C -1.1842331e-15 29.481971 2.5180256 32 5.6464844 32 L 26.353516 32 C 29.481971 32 32 29.481971 32 26.353516 L 32 5.6464844 C 32 2.5180256 29.481971 3.5527101e-15 26.353516 0 L 5.6464844 0 z M 9.6464844 4 A 5.6470599 5.6470599 0 0 1 15.294922 9.6464844 A 5.6470599 5.6470599 0 0 1 9.6464844 15.294922 A 5.6470599 5.6470599 0 0 1 4 9.6464844 A 5.6470599 5.6470599 0 0 1 9.6464844 4 z M 22.824219 4 A 5.6470599 5.6470599 0 0 1 28.470703 9.6464844 A 5.6470599 5.6470599 0 0 1 22.824219 15.294922 A 5.6470599 5.6470599 0 0 1 17.175781 9.6464844 A 5.6470599 5.6470599 0 0 1 22.824219 4 z M 9.6464844 17.175781 A 5.6470599 5.6470599 0 0 1 15.294922 22.824219 A 5.6470599 5.6470599 0 0 1 9.6464844 28.470703 A 5.6470599 5.6470599 0 0 1 4 22.824219 A 5.6470599 5.6470599 0 0 1 9.6464844 17.175781 z M 22.824219 17.175781 A 5.6470599 5.6470599 0 0 1 28.470703 22.824219 A 5.6470599 5.6470599 0 0 1 22.824219 28.470703 A 5.6470599 5.6470599 0 0 1 17.175781 22.824219 A 5.6470599 5.6470599 0 0 1 22.824219 17.175781 z"/><circle id="circle9" cx="9.647" cy="9.647" r="5.647" opacity=".45"/></g><defs id="defs4"><clipPath id="clip0_542_18748"><rect id="rect4" width="32" height="32"/></clipPath></defs></svg>